<svg width="61" height="61" viewBox="0 0 61 61" fill="none" xmlns="http://www.w3.org/2000/svg">
<path fill-rule="evenodd" clip-rule="evenodd" d="M42.0242 17.261L41.9117 17.1735C41.6954 15.531 40.9092 13.8197 39.6817 12.3772C37.6879 10.0335 34.4379 8.24847 30.0879 8.24847C25.8004 8.24847 22.7792 10.2035 20.9967 12.6272C20.1647 13.7482 19.5705 15.0272 19.2504 16.386C19.1923 16.6404 19.1456 16.8973 19.1104 17.156L18.9754 17.2597C17.5704 18.3485 16.5392 19.6685 16.7842 21.1822C17.0192 22.6447 18.3417 23.5347 19.5717 24.0785C19.885 24.2168 20.2212 24.3468 20.5804 24.4685C20.3997 25.8776 20.5213 27.309 20.9371 28.6674C21.3528 30.0259 22.0533 31.2801 22.9918 32.3466C23.9303 33.4132 25.0852 34.2675 26.3797 34.8527C27.6742 35.4379 29.0785 35.7406 30.4992 35.7406C31.9198 35.7406 33.3241 35.4379 34.6186 34.8527C35.9131 34.2675 37.0681 33.4132 38.0065 32.3466C38.945 31.2801 39.6455 30.0259 40.0613 28.6674C40.4771 27.309 40.5986 25.8776 40.4179 24.4685C40.7771 24.3476 41.1133 24.2176 41.4267 24.0785C42.6567 23.5347 43.9779 22.6447 44.2142 21.1822C44.4592 19.6685 43.4279 18.3485 42.0229 17.2597M21.6804 19.0872C21.5179 18.6197 21.4754 17.8685 21.6867 16.9397C21.8942 16.0335 22.3242 15.0397 22.9992 14.1197V17.6235C22.9992 17.955 23.1309 18.2729 23.3653 18.5074C23.5997 18.7418 23.9176 18.8735 24.2492 18.8735C24.5807 18.8735 24.8986 18.7418 25.133 18.5074C25.3675 18.2729 25.4992 17.955 25.4992 17.6235V11.886C26.5279 11.301 27.7717 10.8922 29.2492 10.7797V15.1235C29.2492 15.455 29.3809 15.7729 29.6153 16.0074C29.8497 16.2418 30.1676 16.3735 30.4992 16.3735C30.8307 16.3735 31.1486 16.2418 31.383 16.0074C31.6175 15.7729 31.7492 15.455 31.7492 15.1235V10.8572C33.0691 11.0235 34.3434 11.4482 35.4992 12.1072V17.6235C35.4992 17.955 35.6309 18.2729 35.8653 18.5074C36.0997 18.7418 36.4176 18.8735 36.7492 18.8735C37.0807 18.8735 37.3986 18.7418 37.633 18.5074C37.8675 18.2729 37.9992 17.955 37.9992 17.6235V14.271C39.3804 16.041 39.7042 17.951 39.3154 19.0972C39.2191 19.3809 39.2279 19.6898 39.3402 19.9675C39.4525 20.2453 39.6608 20.4735 39.9272 20.6105C40.1936 20.7476 40.5004 20.7844 40.7917 20.7143C41.0829 20.6442 41.3393 20.4718 41.5142 20.2285C41.7604 20.5722 41.7517 20.7547 41.7467 20.7835C41.7304 20.8835 41.5392 21.296 40.4154 21.7935C39.9279 22.0085 39.3479 22.2022 38.6967 22.3735L38.6667 22.381C37.9604 22.5635 37.1742 22.7185 36.3329 22.846C34.7727 23.0708 33.2002 23.2002 31.6242 23.2335C30.5408 23.2609 29.4567 23.2493 28.3742 23.1985C27.129 23.142 25.8875 23.0236 24.6542 22.8435C23.8724 22.7302 23.0972 22.5758 22.3317 22.381L22.3017 22.3735C21.7141 22.2267 21.1393 22.0328 20.5829 21.7935C19.4592 21.296 19.2679 20.8835 19.2517 20.7835C19.2467 20.7547 19.2379 20.5722 19.4842 20.2285C19.6593 20.4729 19.9166 20.646 20.209 20.716C20.5014 20.786 20.8093 20.7484 21.0761 20.6098C21.343 20.4713 21.551 20.2413 21.6619 19.9618C21.7729 19.6824 21.7795 19.3723 21.6804 19.0885M23.0267 25.0997C23.4425 25.1806 23.8708 25.2543 24.3117 25.321C25.6467 25.521 27.0842 25.6485 28.5467 25.7085C29.8503 25.7622 31.1555 25.7622 32.4592 25.7085C33.9142 25.6485 35.3467 25.521 36.6754 25.321C37.1204 25.256 37.5525 25.1822 37.9717 25.0997C38.0606 26.1349 37.9334 27.1773 37.5982 28.1607C37.2631 29.1442 36.7272 30.0473 36.0247 30.8128C35.3221 31.5782 34.4682 32.1894 33.517 32.6074C32.5658 33.0255 31.5382 33.2414 30.4992 33.2414C29.4602 33.2414 28.4325 33.0255 27.4813 32.6074C26.5301 32.1894 25.6762 31.5782 24.9737 30.8128C24.2711 30.0473 23.7353 29.1442 23.4001 28.1607C23.0649 27.1773 22.9378 26.1349 23.0267 25.0997Z" fill="#F5B400"/>
<path fill-rule="evenodd" clip-rule="evenodd" d="M36.75 36.361C37.5725 36.5047 38.41 36.6722 39.25 36.8635C46.0537 38.4172 53 41.5235 53 45.7485V53.2485H8V45.7485C8 41.5235 14.9462 38.4172 21.75 36.8635C22.5789 36.6747 23.4125 36.5072 24.25 36.361V41.9985H36.75V36.361ZM19.25 40.111C20.0675 39.861 20.9062 39.6347 21.75 39.431V44.4985H39.25V39.4322C40.5164 39.7345 41.7678 40.0966 43 40.5172V50.7485H45.5V41.4947C45.8633 41.6564 46.2125 41.8226 46.5475 41.9935C47.9688 42.716 49.0225 43.461 49.69 44.1735C50.3463 44.8735 50.5 45.3897 50.5 45.7485V50.7485H10.5V45.7485C10.5 45.3897 10.6537 44.8735 11.31 44.1735C11.9775 43.461 13.0312 42.716 14.4525 41.9935C15.1637 41.631 15.935 41.291 16.75 40.9747V50.7485H19.25V40.111Z" fill="#F5B400"/>
</svg>
