<svg width="61" height="61" viewBox="0 0 61 61" fill="none" xmlns="http://www.w3.org/2000/svg">
<path d="M19.0595 41.0539L19.4995 40.9814L21.747 54.9139L21.307 54.9864L19.0595 41.0539ZM13.057 54.8189L14.6195 40.9939L15.062 41.0439L13.4995 54.8689L13.057 54.8189ZM20.4745 50.0239L20.4045 49.5789H14.1245L14.0745 50.0239H20.4745ZM18.2395 41.1239L19.2095 49.5514H19.6595L18.6795 41.0689L18.2395 41.1239ZM19.8195 50.9764L19.7145 50.0514H19.267L19.3795 51.0264L19.8195 50.9764ZM12.0345 50.9639L13.6795 40.9789L14.117 41.0539L12.472 51.0364L12.0345 50.9639ZM18.872 46.8589L14.4295 46.8314L14.3795 47.2739L18.9245 47.3039L18.872 46.8589ZM13.122 47.2664L13.8795 47.2714L13.9295 46.8264L13.192 46.8214L13.122 47.2664ZM15.947 47.3114L16.9295 49.5514H17.4145L16.4345 47.3139L15.947 47.3114ZM13.562 39.1389C13.427 39.3364 12.9495 40.1814 13.122 40.6389H17.622L21.642 40.5989C21.761 40.4567 21.8438 40.2879 21.8834 40.1068C21.923 39.9257 21.9182 39.7377 21.8695 39.5589C21.7717 39.1594 21.526 38.8118 21.182 38.5864C20.723 38.2577 20.1716 38.0826 19.607 38.0864H19.5645L15.6545 38.1389C15.2296 38.1421 14.8118 38.2485 14.437 38.4489C14.0943 38.6054 13.7942 38.842 13.562 39.1389ZM12.812 40.0239C12.9155 39.6432 13.0783 39.2813 13.2945 38.9514C13.5309 38.6336 13.8394 38.3766 14.1945 38.2014C13.7205 38.2094 13.2476 38.2512 12.7795 38.3264C12.5545 38.3814 12.2795 38.4789 12.2145 38.6164C12.1495 38.7539 12.2145 38.8664 12.302 39.1164C12.4553 39.4275 12.6247 39.7304 12.8095 40.0239M32.067 41.1789L32.5045 41.1089L34.7545 55.0414L34.3145 55.1114L32.067 41.1789ZM26.072 54.9164L27.6295 41.0889L28.072 41.1389L26.5145 54.9664L26.072 54.9164ZM33.4845 50.1489L33.4145 49.7064H27.1295L27.0795 50.1489H33.4845ZM32.8295 51.1039L32.7245 50.1764H32.277L32.3895 51.1539L32.8295 51.1039ZM32.667 49.6789L31.692 41.1964L31.2495 41.2464L32.2195 49.6789H32.667ZM25.042 51.0914L26.6895 41.1064L27.127 41.1789L25.482 51.1639L25.042 51.0914ZM26.1295 47.3914L26.8895 47.3964L26.9395 46.9539L26.202 46.9489L26.1295 47.3914ZM31.882 46.9864L27.4395 46.9564L27.3895 47.4014L31.932 47.4314L31.882 46.9864ZM28.957 47.4389L29.9395 49.6789H30.4245L29.4445 47.4414L28.957 47.4389ZM34.187 38.7139C33.7287 38.3836 33.1769 38.2084 32.612 38.2139H32.5745L28.6645 38.2664C28.2399 38.2698 27.8224 38.3753 27.447 38.5739C27.1032 38.7332 26.803 38.9734 26.572 39.2739C26.4345 39.4714 25.9595 40.3164 26.132 40.7739H30.632L34.652 40.7389C34.7725 40.598 34.8562 40.4296 34.8959 40.2487C34.9356 40.0677 34.93 39.8797 34.8795 39.7014C34.7839 39.2956 34.536 38.942 34.187 38.7139ZM26.3045 39.0839C26.5395 38.7667 26.8462 38.5097 27.1995 38.3339C26.7268 38.3479 26.2552 38.3888 25.787 38.4564C25.5645 38.5139 25.287 38.6114 25.2245 38.7489C25.162 38.8864 25.2245 38.9989 25.312 39.2489C25.4627 39.5624 25.6296 39.8678 25.812 40.1639C25.9178 39.78 26.0841 39.4154 26.3045 39.0839ZM43.1645 20.3264H49.3795V21.1689H43.1645V20.3264ZM43.1645 15.8689H49.3795V16.7264H43.1645V15.8689ZM13.6445 13.3364L11.187 13.0114V22.7614H13.6445V13.3364ZM13.2995 22.1439H11.592V13.7614L13.2995 13.9364V22.1439ZM39.4295 22.7539H42.647V13.1239H39.4295V22.7539ZM39.9545 13.7539H42.067V22.1439H39.952L39.9545 13.7539ZM36.147 22.7539H39.277V13.1239H36.147V22.7539ZM36.827 13.7539H38.7695V22.1439H36.827V13.7539ZM19.202 22.7539H24.202V13.3364H19.202V22.7539ZM19.912 14.0039H23.4995V22.1439H19.9095L19.912 14.0039ZM14.2195 22.7539H19.057V13.3364H14.217L14.2195 22.7539ZM14.8695 14.0039H18.3695V22.1439H14.8695V14.0039ZM6.37953 6.93886H7.17453V23.3089H6.37953V6.93886ZM7.31953 23.3089H8.24453L8.31953 8.51636L7.35203 7.10136L7.31953 23.3089ZM8.38453 23.3089H10.4645V12.0589L8.46453 8.75136L8.38453 23.3089ZM13.8495 12.6589L10.7245 12.1989V23.3089H13.8545L13.8495 12.6589ZM13.7895 22.9089H11.0395V12.8339L13.7895 13.1964V22.9089ZM24.392 12.6664H13.9995V23.3089H24.3995L24.392 12.6664ZM24.3545 22.8989H14.0745V13.1989H24.357L24.3545 22.8989ZM34.7295 23.2864L35.5545 23.2014V12.5139L34.7295 13.0439V23.2864ZM42.932 12.4539H35.7745V23.2039H42.932V12.4539ZM42.782 22.8989H36.007V12.9764H42.782V22.8989ZM13.142 28.4414L14.032 28.3364C14.079 28.3297 14.1239 28.3128 14.1637 28.2868C14.2034 28.2609 14.237 28.2266 14.262 28.1864L14.697 27.4364C14.3054 27.5064 13.912 27.5597 13.517 27.5964L12.577 27.6864C12.3385 27.7078 12.099 27.7178 11.8595 27.7164H11.2745L11.7445 28.2914C11.7727 28.3241 11.8071 28.351 11.8457 28.3703C11.8843 28.3896 11.9264 28.401 11.9695 28.4039L13.142 28.4414ZM12.2495 27.4239C12.2495 27.2389 12.1495 27.1089 12.0595 27.1089C11.9695 27.1089 11.872 27.2389 11.872 27.4239V27.4914H12.242L12.2495 27.4239ZM11.1445 27.1364C11.1445 27.1951 11.1597 27.2528 11.1887 27.3039C11.2176 27.355 11.2593 27.3977 11.3096 27.4279C11.3599 27.4581 11.4173 27.4748 11.476 27.4763C11.5346 27.4777 11.5927 27.464 11.6445 27.4364C11.6394 27.2831 11.693 27.1338 11.7945 27.0189C11.7674 26.9429 11.7138 26.8792 11.6437 26.8392C11.5736 26.7993 11.4915 26.7858 11.4123 26.8013C11.3331 26.8167 11.262 26.86 11.2119 26.9233C11.1619 26.9866 11.1362 27.0657 11.1395 27.1464L11.1445 27.1364ZM13.0845 27.1964C13.0833 27.2708 13.1041 27.3439 13.1445 27.4064L13.497 27.3739L13.8595 27.3339C13.8743 27.2894 13.8827 27.2431 13.8845 27.1964C13.8735 27.098 13.8266 27.0071 13.7528 26.9411C13.679 26.8751 13.5835 26.8387 13.4845 26.8387C13.3855 26.8387 13.29 26.8751 13.2162 26.9411C13.1424 27.0071 13.0955 27.098 13.0845 27.1964ZM14.537 27.2339C14.5273 27.149 14.4868 27.0706 14.4233 27.0135C14.3597 26.9564 14.2775 26.9245 14.192 26.9239C14.145 26.9273 14.0987 26.9374 14.0545 26.9539C14.0889 27.0327 14.106 27.1179 14.1045 27.2039V27.3114L14.537 27.2339ZM12.827 27.1089C12.7691 27.1101 12.7139 27.1337 12.6729 27.1747C12.6319 27.2157 12.6083 27.2709 12.607 27.3289C12.609 27.3734 12.6228 27.4165 12.647 27.4539L12.9145 27.4289C12.8803 27.3563 12.864 27.2766 12.867 27.1964V27.1139L12.827 27.1089ZM18.9845 27.3189V27.7189L19.1195 28.1539C19.1324 28.197 19.1588 28.2349 19.1948 28.2619C19.2308 28.2889 19.2745 28.3036 19.3195 28.3039L20.0695 28.3014C20.1116 28.303 20.1531 28.2913 20.1881 28.2679C20.2231 28.2446 20.2498 28.2108 20.2645 28.1714L20.457 27.6914C20.4664 27.6657 20.4714 27.6387 20.472 27.6114V27.3189C20.472 27.2636 20.4503 27.2106 20.4114 27.1712C20.3726 27.1319 20.3198 27.1095 20.2645 27.1089H19.1945C19.1388 27.1089 19.0854 27.131 19.046 27.1704C19.0067 27.2098 18.9845 27.2632 18.9845 27.3189ZM40.7945 27.1964V27.9664L40.827 28.0439C40.8327 28.0606 40.8435 28.0751 40.8578 28.0854C40.8722 28.0957 40.8894 28.1013 40.907 28.1014H41.752C41.7696 28.0999 41.7865 28.0938 41.801 28.0837C41.8155 28.0736 41.8271 28.0599 41.8345 28.0439V27.1964C41.8345 27.1732 41.8253 27.1509 41.8089 27.1345C41.7925 27.1181 41.7702 27.1089 41.747 27.1089H40.897C40.8845 27.1071 40.8718 27.108 40.8597 27.1116C40.8476 27.1151 40.8364 27.1213 40.8269 27.1296C40.8174 27.1379 40.8098 27.1482 40.8047 27.1597C40.7995 27.1712 40.7944 27.1837 40.7945 27.1964ZM40.9095 26.8914H41.1095V26.0539H40.9095V26.8914ZM41.5045 26.8914H41.7345V25.9289H41.5045V26.2664V26.8914ZM41.2545 26.4114H41.3595V26.8914H41.2545V26.4114ZM18.5445 26.1214L18.687 26.4914L19.0145 26.9339C19.0683 26.9098 19.1258 26.8954 19.1845 26.8914L19.2795 26.2014L19.6145 25.7389L19.502 25.5864L19.477 25.4864L19.182 25.3689L18.812 25.6014L19.2695 25.7039L19.0195 26.4539L18.5445 26.1214ZM20.6695 25.6164L20.6095 26.5464L20.4295 26.9214C20.4682 26.9303 20.5042 26.9483 20.5345 26.9739L20.7345 26.5639L21.442 25.9639L21.192 25.5014L20.6695 25.6164ZM19.6445 26.7264L19.5945 26.6064L19.3695 26.8914H19.537L19.6445 26.7264ZM18.757 25.9514L18.657 25.7189L18.552 25.6939L18.372 25.8939L18.757 25.9514ZM19.947 25.5264L19.797 25.7339L20.0345 26.0439L19.947 26.1564H19.9995L20.4995 25.3664L19.8595 25.0289L19.5395 25.1789L19.5945 25.3839L19.947 25.5264ZM30.1595 26.8889H30.447V27.5139H30.1595V26.8889ZM30.517 24.3814C30.5267 24.1651 30.4962 23.949 30.427 23.7439C30.3955 23.6064 30.3311 23.4786 30.2395 23.3714C30.1809 23.2968 30.0991 23.244 30.007 23.2214C29.9167 23.2067 29.824 23.2235 29.7445 23.2689C29.637 23.3314 29.577 23.4489 29.5345 23.6889C29.5001 23.9584 29.4951 24.2308 29.5195 24.5014H29.6645C29.6402 24.2442 29.6444 23.9851 29.677 23.7289C29.7195 23.4939 29.7695 23.4339 29.817 23.4064C29.8659 23.3774 29.9232 23.3659 29.9795 23.3739C30.0405 23.3926 30.0939 23.4302 30.132 23.4814C30.2072 23.5712 30.2603 23.6773 30.287 23.7914C30.3495 23.9833 30.3782 24.1846 30.372 24.3864C30.3512 24.6442 30.2905 24.8972 30.192 25.1364C30.0838 25.3627 30.0372 25.6137 30.057 25.8639C30.1245 26.1612 30.1647 26.4642 30.177 26.7689H30.322C30.3101 26.4531 30.2682 26.1392 30.197 25.8314C30.1867 25.6073 30.2313 25.3842 30.327 25.1814C30.4341 24.927 30.4983 24.6567 30.517 24.3814ZM29.667 26.0314L29.8495 26.2214V26.0289L29.6645 25.8489V24.6314H29.5145V24.7664L29.467 27.1989H29.3845V28.0539H29.7845L29.7945 27.2114H29.6645L29.667 26.0314ZM25.262 18.6989H33.462V19.0289H25.262V18.6989ZM25.262 18.0164H33.462V18.3464H25.262V18.0164ZM25.262 16.6764H33.462V17.5689H25.262V16.6764ZM29.3495 25.4514H25.082V16.3614H33.707V25.4489H30.287L30.242 25.6664H33.9245V16.1439H24.8645V25.6689H29.3495V25.4514ZM7.41953 26.7839L7.66953 28.1689L8.06203 28.0214V26.6614L7.41953 26.7839ZM20.6745 27.7739L20.6045 27.9439H29.2345V27.0564H29.322V26.6089H20.8945L20.8395 26.6589L20.6445 27.0889C20.6857 27.1597 20.7089 27.2395 20.712 27.3214V27.6139C20.7092 27.6688 20.6974 27.7228 20.677 27.7739M42.0945 27.9439V26.6089H41.877V26.9189C41.9323 26.9418 41.9794 26.9807 42.0123 27.0306C42.0453 27.0805 42.0626 27.1391 42.062 27.1989V27.9489L42.0945 27.9439ZM8.28203 27.9439H11.192L10.8095 27.4764H11.0595C10.9834 27.3794 10.942 27.2597 10.942 27.1364C10.9425 27.0195 10.9793 26.9057 11.0474 26.8107C11.1155 26.7157 11.2115 26.6443 11.322 26.6064H8.28203V27.9439ZM13.932 26.7739C14.0082 26.7307 14.0944 26.7083 14.182 26.7089C14.3179 26.7108 14.4487 26.7609 14.5513 26.8501C14.6538 26.9394 14.7214 27.062 14.742 27.1964H14.762L15.1145 27.1264L14.642 27.9464H18.8345L18.787 27.7889C18.7751 27.7482 18.7684 27.7062 18.767 27.6639V27.3239C18.7673 27.2113 18.8123 27.1034 18.892 27.0239L18.592 26.6114H13.6745C13.7729 26.6425 13.8616 26.6985 13.932 26.7739ZM11.9895 26.9014H12.0595C12.1409 26.9058 12.219 26.935 12.2833 26.985C12.3477 27.0351 12.3952 27.1036 12.4195 27.1814C12.4527 27.1 12.509 27.0301 12.5814 26.9804C12.6538 26.9306 12.7392 26.9032 12.827 26.9014C12.865 26.9021 12.9027 26.9071 12.9395 26.9164C13.0155 26.774 13.1436 26.6665 13.297 26.6164H11.6645C11.7351 26.6395 11.8003 26.6766 11.8562 26.7256C11.9121 26.7746 11.9574 26.8344 11.9895 26.9014ZM40.7645 26.9189V26.6089H30.3645V26.7464H30.5795V27.6614H30.0045V26.7464H30.1095V26.6089H29.8095V27.0689H29.9395V27.9439H40.5895V27.1939C40.5891 27.136 40.6054 27.0793 40.6364 27.0305C40.6675 26.9817 40.712 26.943 40.7645 26.9189ZM14.0795 29.6739V29.2264L7.17453 29.1464L7.02953 28.5264L7.47953 28.3314L7.21953 26.8989L7.05953 26.3039H6.18453V30.2964L13.2095 30.3664H13.227V30.8389L14.0795 29.6739ZM14.392 28.8489H45.0745V29.1739H14.3945L14.392 28.8489ZM34.432 32.2114L34.382 32.1614L34.062 31.9739L35.4795 32.7239V31.3639H33.032L32.532 31.0739H35.467V29.3239H26.0995V31.0739H25.8095V29.3239H25.122V31.0739H24.832V29.3239H18.2345V31.0739H12.417L12.3945 31.0889H12.3795L12.822 30.5189L6.18453 30.4539H6.79953V33.5814H37.0195L34.432 32.2114ZM24.277 30.3664H18.802C18.7576 30.3611 18.7167 30.3398 18.687 30.3064C18.6573 30.273 18.6409 30.2298 18.6409 30.1851C18.6409 30.1404 18.6573 30.0973 18.687 30.0638C18.7167 30.0304 18.7576 30.0091 18.802 30.0039H24.277C24.3026 30.0009 24.3286 30.0033 24.3531 30.011C24.3777 30.0188 24.4004 30.0316 24.4196 30.0487C24.4389 30.0659 24.4543 30.0869 24.4648 30.1104C24.4754 30.1339 24.4809 30.1593 24.4809 30.1851C24.4809 30.2109 24.4754 30.2364 24.4648 30.2599C24.4543 30.2834 24.4389 30.3044 24.4196 30.3215C24.4004 30.3386 24.3777 30.3515 24.3531 30.3592C24.3286 30.3669 24.3026 30.3694 24.277 30.3664ZM41.7545 28.3214H40.9095C40.8689 28.3215 40.8287 28.3133 40.7913 28.2974C40.7539 28.2815 40.7201 28.2582 40.692 28.2289L20.4995 28.2064L20.4795 28.2564C20.4476 28.3349 20.393 28.4021 20.3226 28.4493C20.2522 28.4965 20.1693 28.5216 20.0845 28.5214H19.3345C19.2434 28.5216 19.1546 28.4926 19.0813 28.4386C19.0079 28.3846 18.9538 28.3084 18.927 28.2214V28.2039H14.5145L14.4645 28.2914C14.423 28.3601 14.3662 28.4184 14.2986 28.4617C14.231 28.505 14.1543 28.5323 14.0745 28.5414L13.1745 28.6589L11.9745 28.5989C11.9004 28.5958 11.8278 28.5771 11.7614 28.5439C11.695 28.5107 11.6365 28.4638 11.5895 28.4064L11.3945 28.1964H8.26953L7.22203 28.7089L7.29203 29.0064L13.9295 29.0814L14.2295 28.6939H44.9795L43.0045 28.2414H41.967C41.91 28.2942 41.8323 28.3229 41.7545 28.3214ZM26.257 28.6314L25.952 28.3389H33.752L34.567 28.6289L26.257 28.6314ZM6.66953 33.8464H36.8395V34.5164H6.66953V33.8464ZM16.6045 34.7889H6.45953V34.8789H16.1695V37.8039L16.6045 37.7939V34.7889ZM16.1695 48.2489H14.4045L14.3095 49.0814H16.5495L16.1695 48.2139V48.2489ZM13.6395 48.2489H13.0945L12.957 49.0814H13.5445L13.6395 48.2489ZM16.1695 40.9639H16.6045V46.6889H16.1695V40.9639ZM6.45953 49.0814H12.1845L12.3245 48.2489H6.45953V49.0814ZM17.6195 34.8814H32.9095V37.8964C33.4432 37.9477 33.9534 38.141 34.387 38.4564V34.7889H17.112V37.7889H17.612L17.6195 34.8814ZM30.337 49.0814H31.9945L31.8995 48.2489H29.9745L30.337 49.0814ZM20.192 49.0814L20.057 48.2489H19.667L19.767 49.0814H20.192ZM25.357 48.2489H20.832L20.962 49.0814H25.2195L25.357 48.2489ZM17.112 40.9639H17.6195V46.6964H17.112V40.9639ZM32.912 42.6014L33.9545 49.0814H34.3945V41.0589L32.9095 41.0714L32.912 42.6014ZM17.6195 47.4589H17.112V48.4664L17.382 49.0814H18.9995L18.902 48.2489H17.6195V47.4589ZM29.507 49.0839L29.142 48.2489H27.432L27.337 49.0814L29.507 49.0839ZM32.9095 47.3789V48.2489H32.6645L32.7645 49.0814H33.1845L32.9095 47.3789ZM26.6645 48.2489H26.127L25.9895 49.0814H26.572L26.6645 48.2489ZM11.952 50.4939L12.137 49.3714H6.46203V50.4939H11.952ZM30.4645 49.3714L30.5445 49.5539H32.0495L32.0295 49.3714H30.4645ZM12.7245 50.4939H13.3845L13.512 49.3714H12.912L12.7245 50.4939ZM16.677 49.3714H14.277L14.272 49.4264H16.702L16.677 49.3714ZM17.507 49.3714L17.532 49.4264H19.037L19.032 49.3714H17.507ZM19.797 49.3714L19.8045 49.4264H20.2495L20.242 49.3714H19.797ZM19.1595 50.4939L19.1245 50.1864H14.1845L14.152 50.4939H19.1595ZM5.64453 5.83636V55.8364H55.6445V5.83636H5.64453ZM55.102 38.9914L50.172 37.3364L50.267 14.0514L55.102 12.9039V38.9914ZM55.102 12.3364L50.2695 13.4814V10.5089L55.0895 8.94636L55.102 12.3364ZM55.102 8.37386L49.967 10.0389L9.51203 10.2014L9.84203 10.7439L49.737 10.5864L49.6295 37.2514H44.5395V37.7964H49.8545L55.1045 39.5664V55.2964H6.18703V50.7964H6.16953V35.5864H6.18453V34.8814L6.45953 34.8789V34.7864H6.18453V34.5139H6.66953V33.8389H6.18703V33.5639H6.80203V30.4439H6.18453V10.7589H6.23453V10.2139H6.18453V6.37886H55.102V8.37386ZM24.987 50.4914L25.172 49.3689H21.0095L21.192 50.4939L24.987 50.4914ZM20.4195 50.4914L20.3695 50.1839H19.8945L19.927 50.4914H20.4195ZM25.757 50.4914H26.412L26.5395 49.3689H25.942L25.757 50.4914ZM29.6345 49.3689H27.3045L27.2845 49.5514H29.7145L29.6345 49.3689ZM32.1595 50.4939L32.137 50.3114H27.1995L27.1795 50.4914L32.1595 50.4939ZM14.4645 31.0439L14.4695 29.3089L17.0045 29.3164L16.9995 31.0514L14.4645 31.0439ZM17.2895 31.0539L17.297 29.3139H17.947L17.9445 31.0539H17.2895ZM40.1545 31.0714H44.2495V29.3139H35.7745V31.0714H39.8645H40.1545ZM34.6845 34.7664H35.4845V37.9189H34.6845V34.7664ZM35.772 32.8714L37.167 33.6089H37.0945V34.7664H35.772V37.9189H39.8645V31.3614H35.7745L35.772 32.8714ZM44.2495 37.9214V31.3614H40.1545V37.9189H43.4545L44.2495 37.9214ZM39.8645 38.2089H34.6845V38.7089C34.7655 38.7911 34.8407 38.8788 34.9095 38.9714H43.1595V38.2214H39.8645V38.2089ZM8.26953 23.4539H7.72703L7.73953 26.5039L7.94703 26.4614V26.3914H8.28203L8.26953 23.4539Z" fill="#559944"/>
</svg>
