<svg width="61" height="60" viewBox="0 0 61 60" fill="none" xmlns="http://www.w3.org/2000/svg">
<path d="M18 5C15.25 5 13 7.25 13 10V47.5C13 48.8261 13.5268 50.0979 14.4645 51.0355C15.4021 51.9732 16.6739 52.5 18 52.5V55H23V52.5H38V55H43V52.5C45.775 52.5 48 50.275 48 47.5V10C48 8.67392 47.4732 7.40215 46.5355 6.46447C45.5979 5.52678 44.3261 5 43 5H18ZM18 10H43V17.5H18V10ZM18 22.5H43V30H18V22.5ZM18 35H28V47.5H18V35ZM33 35H43V47.5H33V35ZM20.5 37.5V45H25.5V37.5H20.5ZM35.5 37.5V45H40.5V37.5H35.5Z" fill="#559944"/>
</svg>
